<svg xmlns="http://www.w3.org/2000/svg" xmlns:xlink="http://www.w3.org/1999/xlink" viewBox="0,0,256,256" width="40px" height="40px" fill-rule="nonzero"><g fill="none" fill-rule="nonzero" stroke="none" stroke-width="none" stroke-linecap="none" stroke-linejoin="miter" stroke-miterlimit="10" stroke-dasharray="" stroke-dashoffset="0" font-family="none" font-weight="none" font-size="none" text-anchor="none" style="mix-blend-mode: normal"><g transform="scale(6.4,6.4)"><path d="M24.5,12.833v-4.833c0,-1.93 1.57,-3.5 3.5,-3.5c1.93,0 3.5,1.57 3.5,3.5v4.833z" fill="#3d6f9c" stroke="none" stroke-width="1" stroke-linecap="butt"></path><path d="M28,5c1.654,0 3,1.346 3,3v4.333h-6v-4.333c0,-1.654 1.346,-3 3,-3M28,4c-2.209,0 -4,1.791 -4,4c0,0.228 0,5.105 0,5.333h8c0,-0.228 0,-5.105 0,-5.333c0,-2.209 -1.791,-4 -4,-4z" fill="#4788c7" stroke="none" stroke-width="1" stroke-linecap="butt"></path><path d="M23.5,26.461v-13.617c0,-1.417 1.295,-4.344 5.297,-4.344c3.64,0 5.371,2.644 5.389,2.67c0.022,0.057 4.956,10.417 5.296,15.291z" fill="#3d6f9c" stroke="none" stroke-width="1" stroke-linecap="butt"></path><path d="M28.797,9c3.125,0 4.706,2.068 4.939,2.399c0.405,0.857 4.605,9.827 5.196,14.563h-14.932v-13.118c0,-0.997 0.881,-3.844 4.797,-3.844M28.797,8c-4.476,0 -5.797,3.34 -5.797,4.844c0,1.231 0,5.381 0,14.118h17c0,-4.791 -5.394,-16.06 -5.394,-16.06c0,0 -1.853,-2.902 -5.809,-2.902z" fill="#4788c7" stroke="none" stroke-width="1" stroke-linecap="butt"></path><path d="M16.5,14.047c0.686,-0.181 2.245,-0.547 3.621,-0.547c1.353,0 2.752,0.354 3.379,0.536v8.29c-0.749,-0.206 -2.035,-0.492 -3.379,-0.492c-1.385,0 -2.816,0.305 -3.621,0.509z" fill="#3d6f9c" stroke="none" stroke-width="1" stroke-linecap="butt"></path><path d="M20.121,14c1.076,0 2.19,0.238 2.879,0.417v3.25v1.333v2.685c-0.776,-0.178 -1.81,-0.352 -2.879,-0.352c-1.124,0 -2.275,0.193 -3.121,0.378v-2.711v-1.333v-3.231c0.759,-0.184 2.004,-0.436 3.121,-0.436M20.121,13c-1.917,0 -4.121,0.667 -4.121,0.667c0,0 0,2.124 0,4c0,0.473 0,0.93 0,1.333c0,1.151 0,2.808 0,4c0,0 2.135,-0.667 4.121,-0.667c1.986,0 3.879,0.667 3.879,0.667c0,-1.192 0,-2.849 0,-4c0,-0.403 0,-0.861 0,-1.333c0,-1.876 0,-4 0,-4c0,0 -1.962,-0.667 -3.879,-0.667z" fill="#4788c7" stroke="none" stroke-width="1" stroke-linecap="butt"></path><path d="M31.5,19.5c-4.41828,0 -8,3.58172 -8,8c0,4.41828 3.58172,8 8,8c4.41828,0 8,-3.58172 8,-8c0,-4.41828 -3.58172,-8 -8,-8z" fill="#dff0fe" stroke="none" stroke-width="1" stroke-linecap="butt"></path><path d="M31.5,20c4.135,0 7.5,3.364 7.5,7.5c0,4.136 -3.365,7.5 -7.5,7.5c-4.135,0 -7.5,-3.364 -7.5,-7.5c0,-4.136 3.365,-7.5 7.5,-7.5M31.5,19c-4.694,0 -8.5,3.806 -8.5,8.5c0,4.694 3.806,8.5 8.5,8.5c4.694,0 8.5,-3.806 8.5,-8.5c0,-4.694 -3.806,-8.5 -8.5,-8.5z" fill="#4788c7" stroke="none" stroke-width="1" stroke-linecap="butt"></path><path d="M28,28c0,-2.209 1.791,-4 4,-4" fill="none" stroke="#ffffff" stroke-width="2" stroke-linecap="round"></path><g stroke="none" stroke-width="1" stroke-linecap="butt"><path d="M8.5,12.833v-4.833c0,-1.93 1.57,-3.5 3.5,-3.5c1.93,0 3.5,1.57 3.5,3.5v4.833z" fill="#3d6f9c"></path><path d="M12,5c1.654,0 3,1.346 3,3v4.333h-6v-4.333c0,-1.654 1.346,-3 3,-3M12,4c-2.209,0 -4,1.791 -4,4c0,0.228 0,5.105 0,5.333h8c0,-0.228 0,-5.105 0,-5.333c0,-2.209 -1.791,-4 -4,-4z" fill="#4788c7"></path></g><g stroke="none" stroke-width="1" stroke-linecap="butt"><path d="M0.519,26.461c0.34,-4.875 5.274,-15.236 5.326,-15.344c0.04,-0.055 1.74,-2.617 5.358,-2.617c4.002,0 5.297,2.926 5.297,4.344v13.618h-15.981z" fill="#3d6f9c"></path><path d="M11.203,9c3.916,0 4.797,2.847 4.797,3.844v13.118h-14.931c0.59,-4.736 4.791,-13.706 5.196,-14.563c0.226,-0.322 1.814,-2.399 4.938,-2.399M11.203,8c-3.956,0 -5.81,2.902 -5.81,2.902c0,0 -5.393,11.269 -5.393,16.06h17c0,-8.736 0,-12.887 0,-14.118c0,-1.504 -1.321,-4.844 -5.797,-4.844z" fill="#4788c7"></path></g><g stroke="none" stroke-width="1" stroke-linecap="butt"><path d="M8.5,19.5c-4.41828,0 -8,3.58172 -8,8c0,4.41828 3.58172,8 8,8c4.41828,0 8,-3.58172 8,-8c0,-4.41828 -3.58172,-8 -8,-8z" fill="#dff0fe"></path><path d="M8.5,20c4.135,0 7.5,3.364 7.5,7.5c0,4.136 -3.365,7.5 -7.5,7.5c-4.135,0 -7.5,-3.364 -7.5,-7.5c0,-4.136 3.365,-7.5 7.5,-7.5M8.5,19c-4.694,0 -8.5,3.806 -8.5,8.5c0,4.694 3.806,8.5 8.5,8.5c4.694,0 8.5,-3.806 8.5,-8.5c0,-4.694 -3.806,-8.5 -8.5,-8.5z" fill="#4788c7"></path></g><path d="M5,28c0,-2.209 1.791,-4 4,-4" fill="none" stroke="#ffffff" stroke-width="2" stroke-linecap="round"></path></g></g></svg>