<svg xmlns="http://www.w3.org/2000/svg" xmlns:xlink="http://www.w3.org/1999/xlink" viewBox="0,0,256,256" width="40px" height="40px" fill-rule="nonzero"><g fill="#6c6a6a" fill-rule="nonzero" stroke="none" stroke-width="1" stroke-linecap="butt" stroke-linejoin="miter" stroke-miterlimit="10" stroke-dasharray="" stroke-dashoffset="0" font-family="none" font-weight="none" font-size="none" text-anchor="none" style="mix-blend-mode: normal"><path d="M0,256v-256h256v256z" id="bgRectangle"></path></g><g fill="none" fill-rule="nonzero" stroke="none" stroke-width="none" stroke-linecap="butt" stroke-linejoin="miter" stroke-miterlimit="10" stroke-dasharray="" stroke-dashoffset="0" font-family="none" font-weight="none" font-size="none" text-anchor="none" style="mix-blend-mode: normal"><g transform="scale(6.4,6.4)"><path d="M14,11v-3c0,-1.105 0.895,-2 2,-2h8c1.105,0 2,0.895 2,2v3" fill="none" stroke="#0d4f90" stroke-width="2"></path><path d="M1.5,17.5h37v17h-37z" fill="#b6dcfe" stroke="none" stroke-width="1"></path><path d="M38,18v16h-36v-16h36M39,17h-38v18h38v-18z" fill="#0d4f90" stroke="none" stroke-width="1"></path><path d="M1.5,19.5v-7.5c0,-0.827 0.673,-1.5 1.5,-1.5h34c0.827,0 1.5,0.673 1.5,1.5v7.5z" fill="#dff0fe" stroke="none" stroke-width="1"></path><path d="M37,11c0.551,0 1,0.449 1,1v7h-36v-7c0,-0.551 0.449,-1 1,-1h34M37,10h-34c-1.105,0 -2,0.895 -2,2v8h38v-8c0,-1.105 -0.895,-2 -2,-2z" fill="#0d4f90" stroke="none" stroke-width="1"></path><g stroke="none" stroke-width="1"><path d="M27.5,16.5h4v6h-4z" fill="#ffffff"></path><path d="M31,17v5h-3v-5h3M32,16h-5v7h5v-7z" fill="#0d4f90"></path></g><g stroke="none" stroke-width="1"><path d="M8.5,16.5h4v6h-4z" fill="#ffffff"></path><path d="M12,17v5h-3v-5h3M13,16h-5v7h5v-7z" fill="#0d4f90"></path></g></g></g><g fill="#000000" fill-rule="nonzero" stroke="none" stroke-width="1" stroke-linecap="butt" stroke-linejoin="miter" stroke-miterlimit="10" stroke-dasharray="" stroke-dashoffset="0" font-family="none" font-weight="none" font-size="none" text-anchor="none" style="mix-blend-mode: normal"><g><path d="M107.59,159.6l-5.53,31.85h-4.11l2.56,-14.72h-15.56l-2.56,14.72h-4.11l5.54,-31.85h4.11l-2.39,13.69h15.53l2.39,-13.69zM119.1,191.89v0c-2.94667,-0.06 -5.25,-1.14667 -6.91,-3.26c-1.66667,-2.11333 -2.36667,-4.82 -2.1,-8.12v0l0.11,-0.94c0.24667,-2.34667 0.94333,-4.49 2.09,-6.43c1.14,-1.94 2.53333,-3.40333 4.18,-4.39c1.65333,-0.98 3.43333,-1.45 5.34,-1.41v0c2.44,0.06 4.35,0.87 5.73,2.43c1.38667,1.56 2.14667,3.67667 2.28,6.35v0c0.04,0.94667 0.01,1.89333 -0.09,2.84v0l-0.24,1.82h-15.47c-0.26,2.14 0.09667,3.96 1.07,5.46c0.96667,1.50667 2.41333,2.28667 4.34,2.34v0c2.33333,0.06 4.49,-0.99 6.47,-3.15v0l2.28,1.93c-0.99333,1.42667 -2.27333,2.54667 -3.84,3.36c-1.56667,0.80667 -3.31333,1.19667 -5.24,1.17zM121.62,170.65v0c-1.63333,-0.04667 -3.06,0.50667 -4.28,1.66c-1.22,1.15333 -2.18667,2.86667 -2.9,5.14v0l11.51,0.02l0.08,-0.35c0.23333,-1.83333 -0.06,-3.36 -0.88,-4.58c-0.82667,-1.22 -2.00333,-1.85 -3.53,-1.89zM142.22,157.85l-5.84,33.6h-3.94l5.82,-33.6zM164.36,179.27l-0.07,0.46c-0.28667,2.4 -0.93333,4.56333 -1.94,6.49c-1.00667,1.92667 -2.25333,3.36667 -3.74,4.32c-1.49333,0.96 -3.14333,1.41667 -4.95,1.37v0c-2.74,-0.06 -4.84,-0.98667 -6.3,-2.78v0l-2.12,11.42h-3.96l5.69,-32.77l3.59,-0.02l-0.44,2.65c1.95333,-2.1 4.29333,-3.12333 7.02,-3.07v0c2.27333,0.06 4.04667,0.9 5.32,2.52c1.26667,1.62 1.93667,3.85 2.01,6.69v0c0.01333,0.93333 -0.02333,1.84 -0.11,2.72zM160.4,179.27v0l0.11,-1.84c0,-2.13333 -0.40667,-3.76333 -1.22,-4.89c-0.80667,-1.13333 -1.97667,-1.72667 -3.51,-1.78v0c-2.28667,-0.06 -4.26,1.02667 -5.92,3.26v0l-1.99,11.35c0.88667,2.1 2.48333,3.18 4.79,3.24v0c1.96667,0.04 3.64,-0.73 5.02,-2.31c1.37333,-1.58 2.28,-3.92333 2.72,-7.03zM177.72,159.6l-4.26,22.86h-3.59l3.7,-22.86zM168.25,189.48v0c0.01333,-0.68667 0.23333,-1.25 0.66,-1.69c0.42,-0.44667 0.98,-0.68333 1.68,-0.71v0c0.67333,-0.03333 1.23,0.17 1.67,0.61c0.43333,0.43333 0.65,0.98667 0.65,1.66v0c0,0.68667 -0.21667,1.24333 -0.65,1.67c-0.44,0.43333 -1.00333,0.66333 -1.69,0.69c-0.68667,0.03333 -1.24333,-0.16333 -1.67,-0.59c-0.43333,-0.42 -0.65,-0.96667 -0.65,-1.64z"></path></g></g></svg>